<svg width="42" height="42" viewBox="0 0 42 42" fill="none" xmlns="http://www.w3.org/2000/svg">
<path fill-rule="evenodd" clip-rule="evenodd" d="M32.9751 37.2093C33.3847 36.7903 33.5895 36.2785 33.5895 35.674C33.5895 35.0713 33.3847 34.5612 32.9751 34.1405C32.5655 33.7214 32.0653 33.5119 31.4744 33.5119C30.9171 33.5119 30.4336 33.7214 30.024 34.1405C29.6144 34.5612 29.4096 35.0713 29.4096 35.674C29.4096 36.2785 29.6144 36.7903 30.024 37.2093C30.4336 37.6301 30.9171 37.8379 31.4744 37.8379C32.0653 37.8379 32.5655 37.6301 32.9751 37.2093ZM34.4758 32.6572C35.2949 33.4953 35.7045 34.5016 35.7045 35.6746C35.7045 36.8509 35.2949 37.8556 34.4758 38.6936C33.6549 39.5334 32.6561 39.9525 31.4743 39.9525C30.3278 39.9525 29.3441 39.5334 28.5249 38.6936C27.7041 37.8556 27.2945 36.8509 27.2945 35.6746C27.2945 34.5016 27.7041 33.4953 28.5249 32.6572C29.3441 31.8192 30.3278 31.3984 31.4743 31.3984C32.6561 31.3984 33.6549 31.8192 34.4758 32.6572ZM16.2057 37.2093C16.6153 36.7903 16.8201 36.2785 16.8201 35.674C16.8201 35.0713 16.6153 34.5612 16.2057 34.1405C15.7961 33.7214 15.2959 33.5119 14.705 33.5119C14.1158 33.5119 13.6155 33.7214 13.206 34.1405C12.7964 34.5612 12.5899 35.0713 12.5899 35.674C12.5899 36.2785 12.7964 36.7903 13.206 37.2093C13.6155 37.6301 14.1158 37.8379 14.705 37.8379C15.2959 37.8379 15.7961 37.6301 16.2057 37.2093ZM17.6562 32.6572C18.4754 33.4953 18.885 34.5016 18.885 35.6746C18.885 36.8509 18.4754 37.8556 17.6562 38.6936C16.837 39.5334 15.8533 39.9525 14.7051 39.9525C13.5586 39.9525 12.5749 39.5334 11.7541 38.6936C10.9349 37.8556 10.5253 36.8509 10.5253 35.6746C10.5253 34.5016 10.9349 33.4953 11.7541 32.6572C12.5749 31.8192 13.5586 31.3984 14.7051 31.3984C15.8533 31.3984 16.837 31.8192 17.6562 32.6572ZM35.7046 27.0722L39.8845 7.75219H8.40963L12.5895 27.0722H35.7046ZM39.8849 5.63822C40.5412 5.63822 41.0566 5.82369 41.4343 6.1912C41.812 6.56214 42 7.08078 42 7.75225L37.7698 27.0723C37.7043 27.6081 37.4676 28.1027 37.058 28.556C36.6484 29.0094 36.1969 29.2344 35.705 29.2344H12.5899C12.0981 29.2344 11.6482 29.0094 11.2386 28.556C10.829 28.1027 10.5906 27.6081 10.5252 27.0723L5.36163 3.47438H1.08273C0.78729 3.47438 0.533813 3.36619 0.320623 3.14808C0.107434 2.92998 0 2.68784 0 2.41822C0 2.11597 0.107434 1.85837 0.320623 1.63855C0.533813 1.42045 0.78729 1.31226 1.08273 1.31226H6.29496C6.82038 1.31226 7.14772 1.54581 7.27866 2.01636C7.41127 2.48691 7.52542 2.9712 7.62278 3.47438L7.96859 5.63822H39.8849Z" fill="#EC7000"/>
</svg>
