<svg width="42" height="42" viewBox="0 0 42 42" fill="none" xmlns="http://www.w3.org/2000/svg">
<path d="M35.3095 9.10843C35.3095 8.60241 34.8035 8.26506 34.2975 8.26506H29.0686V8.09639C29.0686 3.71084 25.3577 0 20.8035 0C16.2493 0 12.7071 3.71084 12.5385 8.09639V8.26506H7.30953C6.8035 8.26506 6.29747 8.60241 6.29747 9.10843L3.93604 36.4337C3.93604 39.4699 6.80353 42 10.177 42H31.43C34.8035 42 37.671 39.4699 37.671 36.4337L35.3095 9.10843ZM14.7312 8.26506C14.7312 4.89157 17.5987 1.85542 20.9722 1.85542C24.3457 1.85542 27.0444 4.55422 27.2131 7.92771V8.26506H14.7312ZM31.43 39.9759H10.177C7.98425 39.9759 5.96015 38.4578 5.96015 36.6024L8.32159 10.1205H12.5385V13.8313C12.5385 14.3373 13.0445 14.8434 13.5505 14.8434C14.0565 14.8434 14.5625 14.3373 14.5625 13.8313V10.1205H27.0445V13.8313C27.0445 14.3373 27.5505 14.8434 28.0565 14.8434C28.5625 14.8434 29.0686 14.3373 29.0686 13.8313V10.1205H33.2854L35.6469 36.6024C35.6469 38.4578 33.7914 39.9759 31.43 39.9759Z" fill="#EC7000"/>
</svg>
