<svg width="50" height="50" viewBox="0 0 50 50" fill="none" xmlns="http://www.w3.org/2000/svg">
<path fill-rule="evenodd" clip-rule="evenodd" d="M8.3358 0H41.6642C46.2659 0 50 3.73315 50 8.33333V41.6667C50 46.2668 46.2659 50 41.6642 50H8.3358C3.71947 50 0 46.2668 0 41.6667V8.33333C0 3.73315 3.71947 0 8.3358 0Z" fill="#003399"/>
<path fill-rule="evenodd" clip-rule="evenodd" d="M4.14099 41.636H8.00403V25.0427H4.14099V41.636Z" fill="#FFFF00"/>
<path fill-rule="evenodd" clip-rule="evenodd" d="M27.5677 37.0559C27.5677 37.2608 27.553 37.4803 27.5092 37.6852C27.5092 37.7144 27.4799 37.8022 27.4652 37.8168C27.4507 37.8315 27.4507 37.8608 27.4359 37.8753C27.0995 38.6802 26.1776 39.4556 24.9632 39.4556C23.895 39.4556 23.1634 38.8996 23.1634 37.8608C23.1634 36.69 24.1584 36.0902 25.6508 35.8561C26.002 35.7975 26.3824 35.7683 26.7921 35.7536C27.041 35.739 27.2896 35.739 27.5532 35.739V37.0559H27.5677ZM25.3582 28.847C22.9878 28.847 21.2172 29.4616 20.2515 30.0176L20.9831 32.4613C21.861 31.9345 23.3535 31.4663 24.7144 31.4663C26.9824 31.4663 27.4507 32.6076 27.4507 33.1929V33.3246C22.4318 33.3099 19.3296 34.9342 19.3296 38.1534C19.3296 40.041 20.8368 41.9577 23.6023 41.9577C25.2558 41.9577 26.6458 41.3579 27.4946 40.3629H27.5385L27.9629 41.6506H31.1089V34.2904C31.1089 31.2907 29.6309 28.847 25.3582 28.847Z" fill="#FFFF00"/>
<path fill-rule="evenodd" clip-rule="evenodd" d="M41.7906 29.2128V36.4998C41.7906 36.7924 41.7613 37.0558 41.6588 37.2899C41.3516 38.0362 40.5907 38.8849 39.3324 38.8849C37.7519 38.8849 37.0643 37.7289 37.0643 35.7829V29.1981H33.2891V36.4705C33.2891 37.451 33.4061 38.2704 33.6402 38.9582C33.8743 39.6458 34.1963 40.2018 34.606 40.6408C35.0157 41.0799 35.4986 41.4163 36.0693 41.6212C36.6399 41.826 37.2692 41.9286 37.9422 41.9286C38.5421 41.9286 39.069 41.8553 39.5225 41.709C39.9762 41.5627 40.3859 41.3871 40.7078 41.1822C41.0442 40.9774 41.3223 40.758 41.5417 40.5237C41.7613 40.2896 41.9369 40.0702 42.0687 39.8799L42.5514 41.6505H45.6096V29.2128H41.7906Z" fill="#FFFF00"/>
<path fill-rule="evenodd" clip-rule="evenodd" d="M11.6475 25.0426V29.1983H9.87695V32.0369H11.6475V37.0998C11.6475 38.7679 11.9841 40.0264 12.701 40.7873C13.3303 41.4603 14.4131 41.9431 15.7447 41.9431C16.886 41.9431 17.3249 41.7675 17.8372 41.5774V38.6948C17.7346 38.7386 17.4275 38.7971 17.0469 38.7971C15.7007 38.7971 15.3935 37.9632 15.3935 36.4413V32.0369H17.7932V29.1983H15.3935V25.0426H11.6475Z" fill="#FFFF00"/>
<path fill-rule="evenodd" clip-rule="evenodd" d="M40.3565 25.0426L38.0299 28.3934H40.7224L44.0147 25.0426H40.3565Z" fill="#FFFF00"/>
</svg>
