<svg width="42" height="42" viewBox="0 0 42 42" fill="none" xmlns="http://www.w3.org/2000/svg">
<path fill-rule="evenodd" clip-rule="evenodd" d="M2.64598 9.55236C2.67956 10.0112 2.81053 10.4464 3.0389 10.8565C3.26894 11.2683 3.58126 11.6044 3.97418 11.8666L13.2229 18.268L14.6989 16.7403L5.15462 10.1439C5.02365 10.0767 4.92458 9.97083 4.85909 9.82294C4.79361 9.67505 4.74491 9.53556 4.71133 9.40447C4.71133 9.23977 4.73652 9.08516 4.78521 8.93726C4.83558 8.78937 4.90947 8.66669 5.00686 8.56753L5.05723 8.51879L6.72966 6.89365C6.86064 6.76256 7.02351 6.67181 7.22165 6.62307C7.41811 6.57433 7.59778 6.58106 7.76234 6.6466L20.5524 10.8817L22.1761 9.25658L8.45079 4.62819C7.89331 4.46517 7.32744 4.44837 6.75317 4.57945C6.1789 4.71054 5.6802 4.97272 5.25369 5.36766L3.58126 7.04154H3.53089C3.20345 7.36926 2.9583 7.7558 2.79374 8.1978C2.62918 8.64148 2.58049 9.09356 2.64598 9.55236ZM38.95 7.48502C39.5729 6.85983 39.8853 6.11364 39.8853 5.24477C39.8853 4.37422 39.5729 3.62803 38.95 3.00452C38.6544 2.70874 38.3186 2.4785 37.9425 2.3138C37.5647 2.15078 37.1634 2.06843 36.7369 2.06843C36.3104 2.06843 35.909 2.15078 35.5312 2.3138C35.1534 2.4785 34.8176 2.70874 34.5221 3.00452L11.6974 25.7011L4.80953 24.323C4.77763 24.323 4.74405 24.3146 4.71046 24.2978C4.67856 24.2827 4.64498 24.2743 4.61307 24.2743C4.4821 24.2743 4.35113 24.3062 4.21847 24.3717C4.0875 24.4373 3.97332 24.5196 3.87425 24.6188L2.39995 26.0456C2.2673 26.1784 2.17831 26.3246 2.12793 26.4893C2.07924 26.654 2.07084 26.8338 2.10442 27.0305C2.13633 27.1952 2.21021 27.343 2.32607 27.4741C2.44025 27.6052 2.57962 27.7044 2.74418 27.7699L10.663 31.1664L14.0583 39.2417C14.1238 39.4064 14.2228 39.5459 14.3538 39.6602C14.4848 39.7745 14.6477 39.8484 14.8458 39.882C15.0087 39.914 15.1732 39.9072 15.3378 39.8568C15.5007 39.8081 15.6484 39.7173 15.7794 39.5863L17.2554 38.109C17.3544 38.0115 17.4283 37.872 17.477 37.6905C17.5257 37.5107 17.5341 37.3376 17.5022 37.1746L16.1236 30.1329L22.716 23.634L31.6692 36.6822C31.7683 36.8133 31.8824 36.9191 32.0134 37.0015C32.1444 37.0838 32.2922 37.1242 32.4567 37.1242C32.5877 37.1242 32.7271 37.1006 32.8748 37.0502C33.0226 37.0015 33.162 36.9275 33.2929 36.8284L34.9167 35.1058C35.0795 34.9747 35.1786 34.8184 35.2122 34.6386C35.2441 34.4571 35.2273 34.2688 35.1618 34.0722L29.4561 16.8393L38.95 7.48502ZM42 5.21996C42 5.94262 41.869 6.62326 41.6071 7.26357C41.3451 7.90388 40.9505 8.46857 40.4266 8.96099L31.8663 17.3808L37.1792 33.3835C37.3773 33.9734 37.4008 34.5482 37.253 35.1062C37.1053 35.6641 36.8349 36.1565 36.442 36.5834L34.7696 38.306C34.4422 38.6354 34.0559 38.8808 33.6127 39.0455C33.171 39.2085 32.7193 39.2757 32.2609 39.2421C31.8009 39.1766 31.366 39.0287 30.9562 38.7984C30.5465 38.5699 30.2107 38.2573 29.9488 37.864L22.4211 26.9334L18.4365 30.8223L19.5683 36.78C19.6673 37.2725 19.6421 37.7733 19.4944 38.2825C19.3466 38.79 19.0931 39.2253 18.732 39.5867L17.2561 41.0639C16.9605 41.3597 16.6163 41.5882 16.2234 41.7529C15.8305 41.9176 15.4359 42 15.043 42C14.9439 42 14.8465 41.9916 14.7474 41.9748C14.6484 41.958 14.551 41.9496 14.4519 41.9496C13.928 41.8521 13.4595 41.6387 13.0498 41.3093C12.6401 40.9816 12.3362 40.5715 12.1397 40.0791L9.09037 32.792L1.90866 29.6896C1.44857 29.4929 1.05565 29.1904 0.726535 28.7787C0.399101 28.3686 0.185849 27.9182 0.0884583 27.4258C-0.0441944 26.8998 -0.027403 26.3838 0.137154 25.8746C0.30171 25.3654 0.563657 24.9301 0.924674 24.5704L2.40065 23.0932C2.75998 22.7319 3.19488 22.4764 3.70366 22.3302C4.21245 22.1823 4.72794 22.1571 5.25352 22.2563L11.008 23.3873L33.0468 1.52767C33.5388 1.03525 34.1046 0.657117 34.7444 0.394942C35.3842 0.132768 36.0491 0 36.7375 0C37.426 0 38.0893 0.132768 38.729 0.394942C39.3688 0.657117 39.9346 1.03525 40.4266 1.52767C40.9505 2.02009 41.3451 2.58477 41.6071 3.22508C41.869 3.86539 42 4.53091 42 5.21996Z" fill="#EC7000"/>
</svg>
