<svg width="38" height="39" viewBox="0 0 38 39" fill="none" xmlns="http://www.w3.org/2000/svg">
<path d="M32.5667 0.405188C32.3543 0.258032 32.0924 0.201103 31.8382 0.246898C31.5839 0.292693 31.358 0.437464 31.2103 0.649459L6.15587 36.7264C6.01854 36.9391 5.96918 37.1968 6.0183 37.4451C6.06742 37.6934 6.21136 37.9129 6.4193 38.0572C6.62725 38.2016 6.88296 38.2595 7.13277 38.2187C7.38259 38.1779 7.60689 38.0415 7.75806 37.8384L32.8125 1.75996C32.9595 1.54767 33.0159 1.28574 32.9699 1.03171C32.9238 0.777684 32.7788 0.552338 32.5667 0.405188Z" fill="#EC7000"/>
<path d="M29.7183 8.0105L28.3532 9.97675L28.3817 10.0502C28.7639 11.0685 28.9608 12.1471 28.9631 13.2348V25.2525C28.9603 27.7009 27.9865 30.0481 26.2552 31.7793C24.524 33.5105 22.177 34.4844 19.7286 34.4872H19.2413C16.9955 34.4816 14.8293 33.6548 13.1508 32.1627L13.0249 32.0519L11.8457 33.7498L11.9489 33.8382C13.9817 35.5766 16.5665 36.5355 19.2413 36.5434H19.7286C22.7222 36.5402 25.5921 35.3495 27.7089 33.2328C29.8256 31.116 31.0162 28.2461 31.0194 25.2525V13.2348C31.0179 11.4996 30.6115 9.78874 29.8324 8.23831L29.7183 8.0105Z" fill="#EC7000"/>
<path d="M9.19695 30.6069L10.5621 28.6421L10.5353 28.5686C10.1542 27.55 9.95706 26.4716 9.95359 25.384V13.3663C9.95637 10.918 10.9302 8.57075 12.6615 6.83951C14.3927 5.10828 16.7401 4.13445 19.1884 4.13167H19.674C21.9207 4.13723 24.0877 4.96391 25.7674 6.45607L25.8932 6.56698L27.0728 4.86901L26.9678 4.78056C24.9336 3.04442 22.3483 2.08828 19.674 2.08301H19.1884C16.195 2.08658 13.3252 3.27729 11.2086 5.39396C9.0919 7.51063 7.90127 10.3804 7.89771 13.3738V25.3915C7.8984 27.1268 8.30486 28.8379 9.08462 30.3881L9.19695 30.6069Z" fill="#EC7000"/>
</svg>
